# xmcd CD database file
#
# Track frame offsets:
#	150
#	17017
#	39765
#	58945
#	80370
#	104725
#	126967
#	152937
#	171137
#	193800
#
# Disc length: 3057 seconds
#
# Revision: 7
# Processed by: cddbd v1.5PL3 Copyright (c) Steve Scherf et al.
# Submitted via: CDex 1.51
#
DISCID=840bef0a
DTITLE=Stevie B - Love and Emotion
DYEAR=1991
DGENRE=Soul
TTITLE0=Love and Emotion
TTITLE1=Because I Love You (ThePostman Song)
TTITLE2=Forever More
TTITLE3=Broken Hearted
TTITLE4=Facts Of Love
TTITLE5=Who's Loving You Tonight?
TTITLE6=We're Jammin' Now
TTITLE7=Memories Of Loving You
TTITLE8=I'll Be By Your Side
TTITLE9=Love and Emotion(Mean Mix)
EXTD=YEAR: 1991
EXTT0=
EXTT1=
EXTT2=
EXTT3=
EXTT4=
EXTT5=
EXTT6=
EXTT7=
EXTT8=
EXTT9=
PLAYORDER=
